<svg width="28" height="28" viewBox="0 0 28 28" fill="none" xmlns="http://www.w3.org/2000/svg">
<g id="Back Arrow">
<path id="Vector" d="M14 3C20.0654 3 25 7.9346 25 14C25 20.0654 20.0654 25 14 25C7.9346 25 3 20.0654 3 14C3 7.9346 7.9346 3 14 3ZM9.29145 14.5836L12.5914 17.8836C12.9137 18.2059 13.4357 18.2059 13.758 17.8836C14.0803 17.5613 14.0803 17.0393 13.758 16.717L11.8666 14.825L18.125 14.825C18.5804 14.825 18.95 14.4554 18.95 14C18.95 13.5446 18.5804 13.175 18.125 13.175L11.8666 13.175L13.758 11.2836C14.0803 10.9613 14.0803 10.4393 13.758 10.117C13.5974 9.9553 13.3862 9.875 13.175 9.875C12.9638 9.875 12.7526 9.9553 12.5915 10.1165L9.29145 13.4165C8.9697 13.7388 8.9697 14.2613 9.29145 14.5836Z" fill="white"/>
</g>
</svg>
