<svg width="32" height="32" viewBox="0 0 32 32" fill="none" xmlns="http://www.w3.org/2000/svg">
<circle cx="16" cy="16" r="16" fill="#202020"/>
<path d="M20.5169 11.0354C20.4013 11.0381 20.2915 11.0865 20.2115 11.1698L16 15.3813L11.7885 11.1698C11.7477 11.1278 11.6989 11.0945 11.645 11.0717C11.5911 11.0489 11.5332 11.0371 11.4746 11.0371C11.3875 11.0371 11.3025 11.0631 11.2303 11.1118C11.158 11.1604 11.102 11.2295 11.0693 11.3102C11.0365 11.3909 11.0286 11.4795 11.0465 11.5647C11.0645 11.6499 11.1074 11.7278 11.1698 11.7885L15.3814 16L11.1698 20.2115C11.1279 20.2518 11.0943 20.3001 11.0712 20.3535C11.0482 20.407 11.036 20.4645 11.0354 20.5227C11.0348 20.5809 11.0458 20.6386 11.0678 20.6925C11.0898 20.7464 11.1223 20.7954 11.1635 20.8365C11.2047 20.8777 11.2536 20.9102 11.3075 20.9322C11.3614 20.9542 11.4191 20.9652 11.4773 20.9646C11.5355 20.9641 11.593 20.9519 11.6465 20.9288C11.6999 20.9057 11.7482 20.8721 11.7885 20.8302L16 16.6187L20.2115 20.8302C20.2518 20.8721 20.3001 20.9057 20.3535 20.9288C20.407 20.9519 20.4645 20.9641 20.5227 20.9646C20.5809 20.9652 20.6386 20.9542 20.6925 20.9322C20.7464 20.9102 20.7954 20.8777 20.8365 20.8365C20.8777 20.7954 20.9102 20.7464 20.9322 20.6925C20.9542 20.6386 20.9652 20.5809 20.9647 20.5227C20.9641 20.4645 20.9519 20.407 20.9288 20.3535C20.9057 20.3001 20.8722 20.2518 20.8302 20.2115L16.6187 16L20.8302 11.7885C20.8938 11.7274 20.9375 11.6486 20.9555 11.5622C20.9735 11.4759 20.965 11.3862 20.9312 11.3048C20.8973 11.2233 20.8396 11.1541 20.7657 11.106C20.6917 11.0579 20.605 11.0333 20.5169 11.0354Z" fill="white"/>
</svg>
