<svg width="80px" height="100px" viewBox="0 0 80 100" version="1.1" xmlns="http://www.w3.org/2000/svg" xmlns:xlink="http://www.w3.org/1999/xlink">
    <!-- Generator: Sketch 50 (54983) - http://www.bohemiancoding.com/sketch -->
    <title>sort-down</title>
    <desc>Created with Sketch.</desc>
    <defs></defs>
    <g id="Page-1" stroke="none" stroke-width="1" fill="none" fill-rule="evenodd">
        <g id="sort-down" transform="translate(40.000000, 50.000000) rotate(-90.000000) translate(-40.000000, -50.000000) translate(-10.000000, 10.000000)" fill="#FFFFFF" fill-rule="nonzero">
            <path d="M98.1437396,2.63850125 C96.9076009,0.879013967 95.4422941,0 93.7491877,0 L6.25047031,0 C4.55667973,0 3.09239915,0.879013967 1.85523426,2.63850125 C0.61806938,4.39993433 0,6.48242398 0,8.88986179 C0,11.2968131 0.61806938,13.3793028 1.85523426,15.1392765 L45.604764,77.359553 C46.843297,79.1190402 48.3075776,80 50,80 C51.6924224,80 53.1580712,79.1190402 54.3942099,77.359553 L98.1437396,15.1387901 C99.3795363,13.3793028 100,11.2968131 100,8.88937534 C100,6.48242398 99.3795363,4.39993433 98.1437396,2.63850125 Z" id="Shape"></path>
        </g>
    </g>
</svg>