<svg width="480" height="662" viewBox="0 0 480 662" fill="none" xmlns="http://www.w3.org/2000/svg">
<rect width="479.708" height="661.667" fill="white"/>
<path d="M66.1336 559.26C65.7182 558.846 65.5164 558.125 66.0268 557.51L73.8722 548.563C74.2876 548.043 74.9048 548.043 75.4151 548.457C80.0559 552.156 86.3583 555.655 93.7883 555.655C101.218 555.655 105.242 552.263 105.242 547.334C105.242 543.221 102.761 540.656 94.4055 539.521L90.6905 539.001C76.4477 537.051 68.4955 530.373 68.4955 518.033C68.4955 505.694 78.1925 496.652 93.3729 496.652C102.666 496.652 111.331 499.429 117.218 503.945C117.835 504.358 117.942 504.772 117.419 505.481L111.129 514.842C110.713 515.35 110.203 515.457 109.681 515.149C104.316 511.651 99.1531 509.807 93.3729 509.807C87.1773 509.807 83.9845 512.998 83.9845 517.419C83.9845 521.426 86.8806 523.99 94.9277 525.125L98.6427 525.645C113.087 527.595 120.731 534.179 120.731 546.814C120.731 559.449 111.343 568.81 93.1711 568.81C82.2279 568.81 71.5933 564.496 66.1336 559.248" fill="#1A1659"/>
<path d="M128.881 498.823C128.881 498.208 129.296 497.794 129.913 497.794H174.921C175.538 497.794 175.953 498.208 175.953 498.823V509.815C175.953 510.429 175.538 510.843 174.921 510.843H144.678C144.263 510.843 144.061 511.044 144.061 511.458V525.334C144.061 525.747 144.263 525.948 144.678 525.948H169.864C170.482 525.948 170.897 526.362 170.897 526.977V537.874C170.897 538.489 170.482 538.903 169.864 538.903H144.678C144.263 538.903 144.061 539.103 144.061 539.517V554.008C144.061 554.422 144.263 554.622 144.678 554.622H174.921C175.538 554.622 175.953 555.036 175.953 555.651V566.643C175.953 567.258 175.538 567.671 174.921 567.671H129.913C129.296 567.671 128.881 567.258 128.881 566.643V498.811V498.823Z" fill="#1A1659"/>
<path d="M223.944 567.69C223.018 567.69 222.71 567.383 222.401 566.662L210.318 541.072H200.93C200.515 541.072 200.313 541.273 200.313 541.687V566.662C200.313 567.276 199.897 567.69 199.28 567.69H186.165C185.548 567.69 185.132 567.276 185.132 566.662V498.83C185.132 498.215 185.548 497.801 186.165 497.801H214.14C228.49 497.801 237.985 506.749 237.985 519.49C237.985 528.437 233.237 535.529 225.499 538.921L239.326 566.472C239.635 567.087 239.326 567.702 238.602 567.702H223.944V567.69ZM222.816 519.478C222.816 514.242 219.101 510.838 213.321 510.838H200.93C200.515 510.838 200.313 511.051 200.313 511.453V527.586C200.313 528 200.515 528.201 200.93 528.201H213.321C219.101 528.201 222.816 524.809 222.816 519.466" fill="#1A1659"/>
<path d="M248.517 497.79H261.633C262.202 497.79 262.665 498.251 262.665 498.818V566.65C262.665 567.218 262.202 567.679 261.633 567.679H248.529C247.959 567.679 247.497 567.218 247.497 566.65V498.807C247.497 498.239 247.959 497.778 248.529 497.778L248.517 497.79Z" fill="#1A1659"/>
<path d="M274.007 498.823C274.007 498.208 274.423 497.794 275.04 497.794H320.047C320.664 497.794 321.08 498.208 321.08 498.823V509.815C321.08 510.429 320.664 510.843 320.047 510.843H289.805C289.39 510.843 289.188 511.044 289.188 511.458V525.334C289.188 525.747 289.39 525.948 289.805 525.948H314.991C315.608 525.948 316.023 526.362 316.023 526.977V537.874C316.023 538.489 315.608 538.903 314.991 538.903H289.805C289.39 538.903 289.188 539.103 289.188 539.517V554.008C289.188 554.422 289.39 554.622 289.805 554.622H320.047C320.664 554.622 321.08 555.036 321.08 555.651V566.643C321.08 567.258 320.664 567.671 320.047 567.671H275.04C274.423 567.671 274.007 567.258 274.007 566.643V498.811V498.823Z" fill="#1A1659"/>
<path d="M371.445 498.823C371.647 498.208 372.062 497.794 372.786 497.794H385.795C386.519 497.794 386.934 498.208 387.136 498.823L410.874 566.655C411.088 567.269 410.874 567.683 410.15 567.683H396.726C396.002 567.683 395.587 567.376 395.385 566.655L391.361 554.422H366.793L362.864 566.655C362.662 567.376 362.247 567.683 361.523 567.683H348.004C347.28 567.683 347.078 567.269 347.28 566.655L371.433 498.823H371.445ZM387.231 541.586L379.279 517.119H378.97L371.018 541.586H387.219H387.231Z" fill="#1A1659"/>
<path d="M182.81 627.463V601.992H68.7492V627.463H182.81Z" fill="#00A445"/>
<path d="M296.872 627.447V601.976H182.811V627.447H296.872Z" fill="#E3E3E2"/>
<path d="M410.946 627.463V601.992H296.885V627.463H410.946Z" fill="#DB052C"/>
<path d="M239.779 463.559L68.7354 355.6H173.515L239.779 463.559Z" fill="#1A1659"/>
<path d="M239.775 463.558L410.985 355.599H306.075L239.775 463.558Z" fill="#1A1659"/>
<path d="M239.783 181.333L173.519 355.6H239.783H306.083L239.783 181.333Z" fill="#1A1659"/>
<path d="M173.519 355.599L239.783 463.558L306.083 355.599H173.519Z" fill="url(#paint0_linear_2378_45097)"/>
<path d="M239.779 181.333L268.407 256.576H232.266L207.626 321.371H293.059L306.079 355.588H410.977L286.982 68.4454C255.411 68.4454 224.136 68.4454 192.564 68.4572L68.7354 355.6H173.515L239.779 181.333Z" fill="url(#paint1_linear_2378_45097)"/>
<defs>
<linearGradient id="paint0_linear_2378_45097" x1="173.519" y1="409.579" x2="306.083" y2="409.579" gradientUnits="userSpaceOnUse">
<stop stop-color="#31ECFF"/>
<stop offset="0.05" stop-color="#2DE1FF"/>
<stop offset="0.3" stop-color="#1BB2FF"/>
<stop offset="0.51" stop-color="#0D8FFF"/>
<stop offset="0.69" stop-color="#057AFF"/>
<stop offset="0.81" stop-color="#0373FF"/>
</linearGradient>
<linearGradient id="paint1_linear_2378_45097" x1="338.043" y1="86.9547" x2="220.709" y2="410.675" gradientUnits="userSpaceOnUse">
<stop stop-color="#31ECFF"/>
<stop offset="0.05" stop-color="#2DE1FF"/>
<stop offset="0.29" stop-color="#1BB2FF"/>
<stop offset="0.51" stop-color="#0D8FFF"/>
<stop offset="0.69" stop-color="#057AFF"/>
<stop offset="0.8" stop-color="#0373FF"/>
</linearGradient>
</defs>
</svg>
